<svg xmlns="http://www.w3.org/2000/svg" viewBox="0 0 300 420"><defs><linearGradient id="bg" x2="1" y2="1"><stop stop-color="#17182b"/><stop offset="1" stop-color="#080a12"/></linearGradient><linearGradient id="coat"><stop stop-color="#252338"/><stop offset="1" stop-color="#090a10"/></linearGradient></defs><rect width="300" height="420" rx="18" fill="url(#bg)"/><circle cx="150" cy="135" r="105" fill="#6f4fa3" opacity=".18"/><path d="M82 405l12-170 38-38h36l38 38 12 170z" fill="url(#coat)" stroke="#b69b64" stroke-width="3"/><path d="M112 225l38 54 38-54 28 180H84z" fill="#10131d"/><circle cx="150" cy="151" r="48" fill="#d29d7a"/><path d="M101 145c2-62 94-68 103 2-25-18-61-23-103-2z" fill="#11131b"/><path d="M106 130c15-31 66-44 95-4l-9 22-14-18-23 17-17-19-27 20z" fill="#151720"/><circle cx="133" cy="153" r="4" fill="#9d7bd1"/><circle cx="168" cy="153" r="4" fill="#9d7bd1"/><path d="M132 199q18 13 36 0" fill="none" stroke="#7f4e4c" stroke-width="3"/><path d="M139 262h22v60h-22z" fill="#8f78b4" opacity=".45"/><circle cx="150" cy="280" r="17" fill="#c9aa68"/><circle cx="150" cy="280" r="9" fill="#8f68c0"/><path d="M96 250l-35 115 25 9 38-94zM204 250l35 115-25 9-38-94z" fill="#171925"/><path d="M126 226l24 45 24-45" fill="none" stroke="#c7ad72" stroke-width="4"/><text x="150" y="35" text-anchor="middle" fill="#ead49a" font-family="Georgia" font-size="20">ARKAN VEYRON</text></svg>